<svg width="26" height="26" viewBox="0 0 26 26" fill="none" xmlns="http://www.w3.org/2000/svg">
<path d="M10.2705 5.0122L7.84412 2.58579C7.06307 1.80474 5.79674 1.80474 5.0157 2.58579L2.57163 5.02985C2.16383 5.43765 1.94635 6.00502 2.01137 6.57807C3.22126 17.2418 12.8084 22.0989 18.4068 23.4538C19.0447 23.6082 19.7068 23.3947 20.1709 22.9306L22.9393 20.1622C23.7496 19.3519 23.7147 18.0279 22.863 17.2614L20.55 15.1796C19.8868 14.5828 18.9086 14.4974 18.1521 14.9702L16.6759 15.8928C15.9345 16.3562 14.9781 16.2843 14.3143 15.7153L9.77547 11.8249C9.00749 11.1666 8.85188 10.0386 9.41296 9.197L10.5204 7.53581C11.0492 6.74256 10.9447 5.68633 10.2705 5.0122Z" stroke="#88878C" stroke-width="3" stroke-linecap="round"/>
</svg>
